<mxfile host="65bd71144e">
    <diagram id="_AO7GUqIcJTaCHDXAu8e" name="Page-1">
        <mxGraphModel dx="676" dy="505" grid="0" gridSize="10" guides="1" tooltips="1" connect="1" arrows="1" fold="1" page="1" pageScale="1" pageWidth="850" pageHeight="1100" background="#ffffff" math="0" shadow="0">
            <root>
                <mxCell id="0"/>
                <mxCell id="1" parent="0"/>
                <mxCell id="12" style="edgeStyle=none;html=1;exitX=0.75;exitY=0;exitDx=0;exitDy=0;entryX=0;entryY=0.5;entryDx=0;entryDy=0;strokeColor=#000000;" edge="1" parent="1" source="2" target="27">
                    <mxGeometry relative="1" as="geometry">
                        <mxPoint x="429" y="156.51999999999998" as="targetPoint"/>
                    </mxGeometry>
                </mxCell>
                <mxCell id="18" value="" style="edgeStyle=none;html=1;strokeColor=#000000;entryX=0.5;entryY=1;entryDx=0;entryDy=0;" edge="1" parent="1" source="2" target="28">
                    <mxGeometry relative="1" as="geometry">
                        <mxPoint x="330" y="130" as="targetPoint"/>
                    </mxGeometry>
                </mxCell>
                <mxCell id="25" style="edgeStyle=none;html=1;exitX=1;exitY=0.5;exitDx=0;exitDy=0;entryX=0;entryY=0.5;entryDx=0;entryDy=0;fontColor=#ffffff;strokeColor=#000000;" edge="1" parent="1" source="2" target="16">
                    <mxGeometry relative="1" as="geometry"/>
                </mxCell>
                <mxCell id="34" style="edgeStyle=none;html=1;exitX=0;exitY=0.5;exitDx=0;exitDy=0;entryX=1;entryY=0.5;entryDx=0;entryDy=0;fontColor=#000000;strokeColor=#000000;" edge="1" parent="1" source="2" target="33">
                    <mxGeometry relative="1" as="geometry"/>
                </mxCell>
                <mxCell id="36" style="html=1;exitX=1;exitY=1;exitDx=0;exitDy=0;entryX=0.5;entryY=0;entryDx=0;entryDy=0;fontColor=#000000;strokeColor=#000000;" edge="1" parent="1" source="2" target="35">
                    <mxGeometry relative="1" as="geometry"/>
                </mxCell>
                <mxCell id="67" style="edgeStyle=none;html=1;exitX=0.25;exitY=0;exitDx=0;exitDy=0;entryX=1;entryY=0.5;entryDx=0;entryDy=0;strokeColor=#000000;fontColor=#000000;" edge="1" parent="1" source="2" target="30">
                    <mxGeometry relative="1" as="geometry"/>
                </mxCell>
                <mxCell id="2" value="&lt;font color=&quot;#000000&quot;&gt;Student(ent)&lt;/font&gt;" style="whiteSpace=wrap;html=1;align=center;fillColor=#ffcd28;strokeColor=#d79b00;gradientColor=#ffa500;" vertex="1" parent="1">
                    <mxGeometry x="270" y="302" width="100" height="40" as="geometry"/>
                </mxCell>
                <mxCell id="26" style="edgeStyle=none;html=1;exitX=1;exitY=0;exitDx=0;exitDy=0;fontColor=#ffffff;entryX=0.5;entryY=1;entryDx=0;entryDy=0;strokeColor=#000000;" edge="1" parent="1" source="28" target="29">
                    <mxGeometry relative="1" as="geometry">
                        <mxPoint x="365.35533905932743" y="95.85786437626916" as="sourcePoint"/>
                        <mxPoint x="405.70000000000005" y="58.15999999999997" as="targetPoint"/>
                    </mxGeometry>
                </mxCell>
                <mxCell id="16" value="&lt;span style=&quot;border-bottom: 1px dotted&quot;&gt;&lt;font color=&quot;#000000&quot;&gt;gpa(att)&lt;/font&gt;&lt;br&gt;&lt;/span&gt;" style="ellipse;whiteSpace=wrap;html=1;align=center;fillColor=#dae8fc;strokeColor=#6c8ebf;gradientColor=#7ea6e0;" vertex="1" parent="1">
                    <mxGeometry x="400" y="302" width="100" height="40" as="geometry"/>
                </mxCell>
                <mxCell id="27" value="&lt;span style=&quot;border-bottom: 1px dotted&quot;&gt;&lt;font color=&quot;#000000&quot;&gt;grade(att)&lt;/font&gt;&lt;br&gt;&lt;/span&gt;" style="ellipse;whiteSpace=wrap;html=1;align=center;fillColor=#dae8fc;strokeColor=#6c8ebf;gradientColor=#7ea6e0;" vertex="1" parent="1">
                    <mxGeometry x="400" y="237" width="100" height="40" as="geometry"/>
                </mxCell>
                <mxCell id="66" style="edgeStyle=none;html=1;exitX=0;exitY=0;exitDx=0;exitDy=0;entryX=0.5;entryY=1;entryDx=0;entryDy=0;strokeColor=#000000;fontColor=#000000;" edge="1" parent="1" source="28" target="65">
                    <mxGeometry relative="1" as="geometry"/>
                </mxCell>
                <mxCell id="28" value="&lt;span style=&quot;border-bottom: 1px dotted&quot;&gt;&lt;font color=&quot;#000000&quot;&gt;name(composite.att)&lt;/font&gt;&lt;br&gt;&lt;/span&gt;" style="ellipse;whiteSpace=wrap;html=1;align=center;fillColor=#dae8fc;strokeColor=#6c8ebf;gradientColor=#7ea6e0;" vertex="1" parent="1">
                    <mxGeometry x="254" y="190" width="132" height="40" as="geometry"/>
                </mxCell>
                <mxCell id="29" value="last_name(att)" style="ellipse;whiteSpace=wrap;html=1;align=center;dashed=1;fontColor=#ffffff;fillColor=#1ba1e2;strokeColor=#006EAF;" vertex="1" parent="1">
                    <mxGeometry x="341" y="92" width="105" height="57" as="geometry"/>
                </mxCell>
                <mxCell id="30" value="&lt;span style=&quot;border-bottom: 1px dotted&quot;&gt;&lt;font color=&quot;#000000&quot;&gt;&lt;u&gt;stident_id(pk)&lt;/u&gt;&lt;/font&gt;&lt;br&gt;&lt;/span&gt;" style="ellipse;whiteSpace=wrap;html=1;align=center;fillColor=#fa6800;strokeColor=#C73500;fontColor=#000000;" vertex="1" parent="1">
                    <mxGeometry x="138" y="237" width="100" height="40" as="geometry"/>
                </mxCell>
                <mxCell id="33" value="&lt;font color=&quot;#000000&quot;&gt;Clubs&lt;br&gt;(multivalue att)&lt;br&gt;&lt;/font&gt;" style="ellipse;shape=doubleEllipse;margin=3;whiteSpace=wrap;html=1;align=center;labelBackgroundColor=none;fillColor=#dae8fc;gradientColor=#7ea6e0;strokeColor=#6c8ebf;" vertex="1" parent="1">
                    <mxGeometry x="136" y="295.5" width="104" height="53" as="geometry"/>
                </mxCell>
                <mxCell id="35" value="&lt;font color=&quot;#000000&quot;&gt;has_honors&lt;/font&gt;&lt;br&gt;&lt;font color=&quot;#000000&quot;&gt;(derived att)&lt;/font&gt;" style="ellipse;whiteSpace=wrap;html=1;align=center;dashed=1;labelBackgroundColor=none;fillColor=#dae8fc;gradientColor=#7ea6e0;strokeColor=#6c8ebf;" vertex="1" parent="1">
                    <mxGeometry x="400" y="371" width="103" height="40" as="geometry"/>
                </mxCell>
                <mxCell id="57" style="edgeStyle=none;html=1;exitX=1;exitY=0.5;exitDx=0;exitDy=0;entryX=0;entryY=0.5;entryDx=0;entryDy=0;strokeColor=#000000;fontColor=#000000;" edge="1" parent="1" source="38" target="56">
                    <mxGeometry relative="1" as="geometry"/>
                </mxCell>
                <mxCell id="38" value="&lt;font color=&quot;#000000&quot;&gt;Class&lt;/font&gt;" style="whiteSpace=wrap;html=1;align=center;labelBackgroundColor=none;fillColor=#ffcd28;gradientColor=#ffa500;strokeColor=#d79b00;" vertex="1" parent="1">
                    <mxGeometry x="270" y="595" width="100" height="40" as="geometry"/>
                </mxCell>
                <mxCell id="75" style="edgeStyle=none;html=1;exitX=1;exitY=0.5;exitDx=0;exitDy=0;entryX=0;entryY=0.5;entryDx=0;entryDy=0;strokeColor=#000000;fontColor=#000000;" edge="1" parent="1" source="41" target="74">
                    <mxGeometry relative="1" as="geometry"/>
                </mxCell>
                <mxCell id="41" value="&lt;font color=&quot;#000000&quot;&gt;Takes&lt;/font&gt;" style="shape=rhombus;perimeter=rhombusPerimeter;whiteSpace=wrap;html=1;align=center;labelBackgroundColor=none;fillColor=#d5e8d4;gradientColor=#97d077;strokeColor=#82b366;" vertex="1" parent="1">
                    <mxGeometry x="260" y="439" width="120" height="60" as="geometry"/>
                </mxCell>
                <mxCell id="47" value="partial &lt;br&gt;participation" style="text;html=1;align=center;verticalAlign=middle;resizable=0;points=[];autosize=1;strokeColor=none;fillColor=none;fontColor=#000000;" vertex="1" parent="1">
                    <mxGeometry x="236" y="378" width="90" height="40" as="geometry"/>
                </mxCell>
                <mxCell id="49" value="relationship" style="text;html=1;align=center;verticalAlign=middle;resizable=0;points=[];autosize=1;strokeColor=none;fillColor=none;fontColor=#000000;" vertex="1" parent="1">
                    <mxGeometry x="168" y="456" width="79" height="26" as="geometry"/>
                </mxCell>
                <mxCell id="50" value="total &lt;br&gt;participation" style="text;html=1;align=center;verticalAlign=middle;resizable=0;points=[];autosize=1;strokeColor=none;fillColor=none;fontColor=#000000;" vertex="1" parent="1">
                    <mxGeometry x="240" y="523" width="83" height="41" as="geometry"/>
                </mxCell>
                <mxCell id="56" value="&lt;font style=&quot;&quot; color=&quot;#000000&quot;&gt;&lt;u&gt;class_id&lt;/u&gt;&lt;/font&gt;" style="ellipse;whiteSpace=wrap;html=1;align=center;labelBackgroundColor=none;fillColor=#dae8fc;strokeColor=#6c8ebf;gradientColor=#7ea6e0;" vertex="1" parent="1">
                    <mxGeometry x="409" y="595" width="100" height="40" as="geometry"/>
                </mxCell>
                <mxCell id="59" value="" style="shape=link;html=1;rounded=0;strokeColor=#000000;fontColor=#000000;exitX=0.5;exitY=1;exitDx=0;exitDy=0;entryX=0.5;entryY=0;entryDx=0;entryDy=0;" edge="1" parent="1" source="41" target="38">
                    <mxGeometry relative="1" as="geometry">
                        <mxPoint x="267" y="455" as="sourcePoint"/>
                        <mxPoint x="427" y="455" as="targetPoint"/>
                    </mxGeometry>
                </mxCell>
                <mxCell id="60" value="M" style="resizable=0;html=1;align=left;verticalAlign=bottom;labelBackgroundColor=none;strokeColor=#000000;fontColor=#000000;fillColor=none;" connectable="0" vertex="1" parent="59">
                    <mxGeometry x="-1" relative="1" as="geometry">
                        <mxPoint x="6" y="14" as="offset"/>
                    </mxGeometry>
                </mxCell>
                <mxCell id="64" value="N" style="resizable=0;html=1;align=left;verticalAlign=bottom;labelBackgroundColor=none;strokeColor=#000000;fontColor=#000000;fillColor=none;" connectable="0" vertex="1" parent="1">
                    <mxGeometry x="326" y="439" as="geometry"/>
                </mxCell>
                <mxCell id="65" value="first_name(att)" style="ellipse;whiteSpace=wrap;html=1;align=center;dashed=1;fontColor=#ffffff;fillColor=#1ba1e2;strokeColor=#006EAF;" vertex="1" parent="1">
                    <mxGeometry x="209" y="92" width="105" height="57" as="geometry"/>
                </mxCell>
                <mxCell id="72" value="" style="endArrow=none;html=1;rounded=0;dashed=1;dashPattern=1 2;strokeColor=#000000;fontColor=#000000;entryX=0.5;entryY=1;entryDx=0;entryDy=0;exitX=0.5;exitY=0;exitDx=0;exitDy=0;" edge="1" parent="1" source="41" target="2">
                    <mxGeometry relative="1" as="geometry">
                        <mxPoint x="267" y="461" as="sourcePoint"/>
                        <mxPoint x="427" y="461" as="targetPoint"/>
                    </mxGeometry>
                </mxCell>
                <mxCell id="74" value="grade" style="ellipse;whiteSpace=wrap;html=1;align=center;labelBackgroundColor=none;strokeColor=#6c8ebf;fillColor=#dae8fc;gradientColor=#7ea6e0;" vertex="1" parent="1">
                    <mxGeometry x="414" y="449" width="100" height="40" as="geometry"/>
                </mxCell>
                <mxCell id="76" value="&lt;font style=&quot;font-weight: bold;&quot; color=&quot;rgba(0, 0, 0, 0)&quot;&gt;Relationship Cardinality: &lt;br&gt;&lt;/font&gt;the number of instances&lt;br&gt;&amp;nbsp;of an entity from a relation &lt;br&gt;that can be associated &lt;br&gt;with the relation&lt;br&gt;M:N - many to many relationship&lt;br&gt;1:N - one to many relatonship&lt;br&gt;N:1 - many to one relatioship&lt;br&gt;1:1 - one to one relationship" style="text;html=1;align=center;verticalAlign=middle;resizable=0;points=[];autosize=1;strokeColor=#000000;fillColor=none;fontColor=#000000;" vertex="1" parent="1">
                    <mxGeometry x="619" y="731" width="191" height="142" as="geometry"/>
                </mxCell>
                <mxCell id="78" value="&lt;font style=&quot;font-weight: bold;&quot; color=&quot;#cc0000&quot;&gt;Total Participation: &lt;br&gt;&lt;/font&gt;all members must &lt;br&gt;participate in relationship" style="text;html=1;align=center;verticalAlign=middle;resizable=0;points=[];autosize=1;strokeColor=#000000;fillColor=none;fontColor=#000000;" vertex="1" parent="1">
                    <mxGeometry x="639" y="890" width="151" height="55" as="geometry"/>
                </mxCell>
                <mxCell id="79" value="&lt;b style=&quot;color: rgb(204, 0, 0);&quot;&gt;Weak Entity: &lt;/b&gt;an entity that cannot be&lt;br&gt;&amp;nbsp;uniquely identified by it's attributes alone&lt;b style=&quot;color: rgb(204, 0, 0);&quot;&gt;&amp;nbsp;&lt;/b&gt;" style="text;html=1;align=center;verticalAlign=middle;resizable=0;points=[];autosize=1;strokeColor=#000000;fillColor=none;fontColor=#000000;" vertex="1" parent="1">
                    <mxGeometry x="594.5" y="591" width="240" height="41" as="geometry"/>
                </mxCell>
                <mxCell id="80" value="&lt;b style=&quot;color: rgb(204, 0, 0);&quot;&gt;Identifying Relationship:&lt;br&gt;&lt;/b&gt;a relationship that serves to uniquely &lt;br&gt;identify the weak entity&amp;nbsp;&lt;br&gt;" style="text;html=1;align=center;verticalAlign=middle;resizable=0;points=[];autosize=1;strokeColor=#000000;fillColor=none;fontColor=#000000;" vertex="1" parent="1">
                    <mxGeometry x="608" y="657" width="213" height="55" as="geometry"/>
                </mxCell>
                <mxCell id="84" style="edgeStyle=none;html=1;exitX=1;exitY=0.5;exitDx=0;exitDy=0;entryX=0;entryY=0.5;entryDx=0;entryDy=0;strokeColor=#000000;fontColor=#000000;" edge="1" parent="1" source="82" target="83">
                    <mxGeometry relative="1" as="geometry"/>
                </mxCell>
                <mxCell id="82" value="&lt;font color=&quot;#000000&quot;&gt;Exams&lt;/font&gt;" style="shape=ext;margin=3;double=1;whiteSpace=wrap;html=1;align=center;labelBackgroundColor=none;strokeColor=#d79b00;fillColor=#ffcd28;gradientColor=#ffa500;" vertex="1" parent="1">
                    <mxGeometry x="270" y="799" width="100" height="40" as="geometry"/>
                </mxCell>
                <mxCell id="83" value="exam_id" style="ellipse;whiteSpace=wrap;html=1;align=center;fontStyle=4;labelBackgroundColor=none;strokeColor=#C73500;fillColor=#fa6800;fontColor=#000000;" vertex="1" parent="1">
                    <mxGeometry x="401.5" y="799" width="100" height="40" as="geometry"/>
                </mxCell>
                <mxCell id="86" value="" style="endArrow=none;html=1;rounded=0;strokeColor=#000000;fontColor=#000000;exitX=0.5;exitY=1;exitDx=0;exitDy=0;entryX=0.5;entryY=0;entryDx=0;entryDy=0;" edge="1" parent="1" source="38" target="90">
                    <mxGeometry relative="1" as="geometry">
                        <mxPoint x="184" y="706" as="sourcePoint"/>
                        <mxPoint x="320" y="687" as="targetPoint"/>
                    </mxGeometry>
                </mxCell>
                <mxCell id="87" value="" style="shape=link;html=1;rounded=0;strokeColor=#000000;fontColor=#000000;exitX=0.5;exitY=1;exitDx=0;exitDy=0;entryX=0.5;entryY=0;entryDx=0;entryDy=0;" edge="1" parent="1" source="90" target="82">
                    <mxGeometry relative="1" as="geometry">
                        <mxPoint x="320" y="747" as="sourcePoint"/>
                        <mxPoint x="250" y="763" as="targetPoint"/>
                    </mxGeometry>
                </mxCell>
                <mxCell id="88" value="M" style="resizable=0;html=1;align=left;verticalAlign=bottom;labelBackgroundColor=none;strokeColor=#000000;fontColor=#000000;fillColor=none;" connectable="0" vertex="1" parent="87">
                    <mxGeometry x="-1" relative="1" as="geometry">
                        <mxPoint x="3" y="15" as="offset"/>
                    </mxGeometry>
                </mxCell>
                <mxCell id="89" value="N" style="resizable=0;html=1;align=right;verticalAlign=bottom;labelBackgroundColor=none;strokeColor=#000000;fontColor=#000000;fillColor=none;" connectable="0" vertex="1" parent="87">
                    <mxGeometry x="1" relative="1" as="geometry">
                        <mxPoint x="14" y="-111" as="offset"/>
                    </mxGeometry>
                </mxCell>
                <mxCell id="90" value="Relationship" style="shape=rhombus;double=1;perimeter=rhombusPerimeter;whiteSpace=wrap;html=1;align=center;labelBackgroundColor=none;strokeColor=#82b366;fillColor=#d5e8d4;gradientColor=#97d077;" vertex="1" parent="1">
                    <mxGeometry x="260" y="687" width="120" height="60" as="geometry"/>
                </mxCell>
            </root>
        </mxGraphModel>
    </diagram>
</mxfile>